<svg width="208" height="77" viewBox="0 0 208 77" fill="none" xmlns="http://www.w3.org/2000/svg">
<path d="M24.0039 35.3516V45H17.1484V16.5625H28.4961C30.6706 16.5625 32.5911 16.9661 34.2578 17.7734C35.9375 18.5677 37.2331 19.707 38.1445 21.1914C39.069 22.6628 39.5312 24.3359 39.5312 26.2109C39.5312 28.9844 38.5352 31.2044 36.543 32.8711C34.5638 34.5247 31.8424 35.3516 28.3789 35.3516H24.0039ZM24.0039 30.0586H28.4961C29.8242 30.0586 30.8333 29.7266 31.5234 29.0625C32.2266 28.3984 32.5781 27.4609 32.5781 26.25C32.5781 24.9219 32.2201 23.8607 31.5039 23.0664C30.7878 22.2721 29.8112 21.8685 28.5742 21.8555H24.0039V30.0586ZM60.8398 32.9492H50.0586V39.7266H62.793V45H43.2031V16.5625H62.832V21.8555H50.0586V27.8516H60.8398V32.9492ZM80.2539 37.4414C80.2539 36.4388 79.8958 35.6576 79.1797 35.0977C78.4766 34.5378 77.2331 33.9583 75.4492 33.3594C73.6654 32.7604 72.207 32.181 71.0742 31.6211C67.3893 29.8112 65.5469 27.3242 65.5469 24.1602C65.5469 22.5846 66.0026 21.1979 66.9141 20C67.8385 18.7891 69.1406 17.8516 70.8203 17.1875C72.5 16.5104 74.388 16.1719 76.4844 16.1719C78.5286 16.1719 80.3581 16.5365 81.9727 17.2656C83.6003 17.9948 84.8633 19.0365 85.7617 20.3906C86.6602 21.7318 87.1094 23.2682 87.1094 25H80.2734C80.2734 23.8411 79.9154 22.9427 79.1992 22.3047C78.4961 21.6667 77.5391 21.3477 76.3281 21.3477C75.1042 21.3477 74.1341 21.6211 73.418 22.168C72.7148 22.7018 72.3633 23.3854 72.3633 24.2188C72.3633 24.9479 72.7539 25.612 73.5352 26.2109C74.3164 26.7969 75.6901 27.4089 77.6562 28.0469C79.6224 28.6719 81.237 29.349 82.5 30.0781C85.5729 31.849 87.1094 34.2904 87.1094 37.4023C87.1094 39.8893 86.1719 41.8424 84.2969 43.2617C82.4219 44.681 79.8503 45.3906 76.582 45.3906C74.2773 45.3906 72.1875 44.9805 70.3125 44.1602C68.4505 43.3268 67.0443 42.194 66.0938 40.7617C65.1562 39.3164 64.6875 37.6562 64.6875 35.7812H71.5625C71.5625 37.3047 71.9531 38.431 72.7344 39.1602C73.5286 39.8763 74.8112 40.2344 76.582 40.2344C77.7148 40.2344 78.6068 39.9935 79.2578 39.5117C79.9219 39.0169 80.2539 38.3268 80.2539 37.4414ZM106.777 39.6875H97.3828L95.7422 45H88.418L98.8477 16.5625H105.293L115.801 45H108.438L106.777 39.6875ZM99.0234 34.3945H105.137L102.07 24.5312L99.0234 34.3945ZM117.891 45V16.5625H127.051C129.564 16.5625 131.823 17.1354 133.828 18.2812C135.833 19.4141 137.396 21.0221 138.516 23.1055C139.648 25.1758 140.221 27.5 140.234 30.0781V31.3867C140.234 33.9909 139.681 36.3281 138.574 38.3984C137.48 40.4557 135.931 42.0703 133.926 43.2422C131.934 44.401 129.707 44.987 127.246 45H117.891ZM124.746 21.8555V39.7266H127.129C129.095 39.7266 130.605 39.0299 131.66 37.6367C132.715 36.2305 133.242 34.1471 133.242 31.3867V30.1562C133.242 27.4089 132.715 25.3385 131.66 23.9453C130.605 22.5521 129.069 21.8555 127.051 21.8555H124.746ZM159.473 39.6875H150.078L148.438 45H141.113L151.543 16.5625H157.988L168.496 45H161.133L159.473 39.6875ZM151.719 34.3945H157.832L154.766 24.5312L151.719 34.3945ZM162.363 9.12109C162.363 10.6055 161.927 11.8685 161.055 12.9102C160.195 13.9388 159.128 14.4531 157.852 14.4531C156.992 14.4531 156.035 14.1797 154.98 13.6328C153.926 13.0859 153.073 12.8125 152.422 12.8125C152.005 12.8125 151.647 12.9557 151.348 13.2422C151.061 13.5286 150.918 13.9714 150.918 14.5703L147.266 14.375C147.266 12.9297 147.695 11.6797 148.555 10.625C149.427 9.57031 150.495 9.04297 151.758 9.04297C152.409 9.04297 153.262 9.28385 154.316 9.76562C155.371 10.2344 156.035 10.5013 156.309 10.5664C156.595 10.6315 156.895 10.6641 157.207 10.6641C157.624 10.6641 157.982 10.5208 158.281 10.2344C158.581 9.94792 158.73 9.50521 158.73 8.90625L162.363 9.12109ZM194.238 31.3672C194.238 34.1406 193.724 36.5951 192.695 38.7305C191.667 40.8659 190.202 42.513 188.301 43.6719C186.413 44.8177 184.258 45.3906 181.836 45.3906C179.414 45.3906 177.266 44.8372 175.391 43.7305C173.516 42.6107 172.051 41.0156 170.996 38.9453C169.954 36.875 169.408 34.4987 169.355 31.8164V30.2148C169.355 27.4284 169.863 24.974 170.879 22.8516C171.908 20.7161 173.372 19.069 175.273 17.9102C177.188 16.7513 179.362 16.1719 181.797 16.1719C184.206 16.1719 186.354 16.7448 188.242 17.8906C190.13 19.0365 191.595 20.6706 192.637 22.793C193.691 24.9023 194.225 27.3242 194.238 30.0586V31.3672ZM187.266 30.1758C187.266 27.3503 186.79 25.2083 185.84 23.75C184.902 22.2786 183.555 21.543 181.797 21.543C178.359 21.543 176.543 24.1211 176.348 29.2773L176.328 31.3672C176.328 34.1536 176.79 36.2956 177.715 37.793C178.639 39.2904 180.013 40.0391 181.836 40.0391C183.568 40.0391 184.902 39.3034 185.84 37.832C186.777 36.3607 187.253 34.2448 187.266 31.4844V30.1758Z" fill="#2974CC"/>
<path d="M53.7266 62.9766C53.7266 62.5755 53.5833 62.263 53.2969 62.0391C53.0156 61.8151 52.5182 61.5833 51.8047 61.3438C51.0911 61.1042 50.5078 60.8724 50.0547 60.6484C48.5807 59.9245 47.8438 58.9297 47.8438 57.6641C47.8438 57.0339 48.026 56.4792 48.3906 56C48.7604 55.5156 49.2812 55.1406 49.9531 54.875C50.625 54.6042 51.3802 54.4688 52.2188 54.4688C53.0365 54.4688 53.7682 54.6146 54.4141 54.9062C55.0651 55.1979 55.5703 55.6146 55.9297 56.1562C56.2891 56.6927 56.4688 57.3073 56.4688 58H53.7344C53.7344 57.5365 53.5911 57.1771 53.3047 56.9219C53.0234 56.6667 52.6406 56.5391 52.1562 56.5391C51.6667 56.5391 51.2786 56.6484 50.9922 56.8672C50.7109 57.0807 50.5703 57.3542 50.5703 57.6875C50.5703 57.9792 50.7266 58.2448 51.0391 58.4844C51.3516 58.7188 51.901 58.9635 52.6875 59.2188C53.474 59.4688 54.1198 59.7396 54.625 60.0312C55.8542 60.7396 56.4688 61.7161 56.4688 62.9609C56.4688 63.9557 56.0938 64.737 55.3438 65.3047C54.5938 65.8724 53.5651 66.1562 52.2578 66.1562C51.3359 66.1562 50.5 65.9922 49.75 65.6641C49.0052 65.3307 48.4427 64.8776 48.0625 64.3047C47.6875 63.7266 47.5 63.0625 47.5 62.3125H50.25C50.25 62.9219 50.4062 63.3724 50.7188 63.6641C51.0365 63.9505 51.5495 64.0938 52.2578 64.0938C52.7109 64.0938 53.0677 63.9974 53.3281 63.8047C53.5938 63.6068 53.7266 63.3307 53.7266 62.9766ZM66.7969 54.625V62.0703C66.7969 62.9141 66.6172 63.6458 66.2578 64.2656C65.8984 64.8802 65.3828 65.349 64.7109 65.6719C64.0391 65.9948 63.2448 66.1562 62.3281 66.1562C60.9427 66.1562 59.8516 65.7969 59.0547 65.0781C58.2578 64.3594 57.8516 63.375 57.8359 62.125V54.625H60.5938V62.1797C60.625 63.4245 61.2031 64.0469 62.3281 64.0469C62.8958 64.0469 63.3255 63.8906 63.6172 63.5781C63.9089 63.2656 64.0547 62.7578 64.0547 62.0547V54.625H66.7969ZM71.2578 62.1406V66H68.5156V54.625H73.0547C73.9245 54.625 74.6927 54.7865 75.3594 55.1094C76.0312 55.4271 76.5495 55.8828 76.9141 56.4766C77.2839 57.0651 77.4688 57.7344 77.4688 58.4844C77.4688 59.5938 77.0703 60.4818 76.2734 61.1484C75.4818 61.8099 74.3932 62.1406 73.0078 62.1406H71.2578ZM71.2578 60.0234H73.0547C73.5859 60.0234 73.9896 59.8906 74.2656 59.625C74.5469 59.3594 74.6875 58.9844 74.6875 58.5C74.6875 57.9688 74.5443 57.5443 74.2578 57.2266C73.9714 56.9089 73.5807 56.7474 73.0859 56.7422H71.2578V60.0234ZM81.6797 63.8906H86.4531V66H78.9375V54.625H81.6797V63.8906ZM94.6641 61.1797H90.3516V63.8906H95.4453V66H87.6094V54.625H95.4609V56.7422H90.3516V59.1406H94.6641V61.1797ZM100.164 54.625L102.703 62.5391L105.234 54.625H108.844V66H106.094V63.3438L106.359 57.9062L103.609 66H101.797L99.0391 57.8984L99.3047 63.3438V66H96.5625V54.625H100.164ZM117.648 61.1797H113.336V63.8906H118.43V66H110.594V54.625H118.445V56.7422H113.336V59.1406H117.648V61.1797ZM129.047 66H126.32L122.289 58.9219V66H119.547V54.625H122.289L126.312 61.7031V54.625H129.047V66ZM139.477 56.7422H136.062V66H133.32V56.7422H129.969V54.625H139.477V56.7422ZM150.055 60.5469C150.055 61.6562 149.849 62.638 149.438 63.4922C149.026 64.3464 148.44 65.0052 147.68 65.4688C146.924 65.9271 146.062 66.1562 145.094 66.1562C144.125 66.1562 143.266 65.9349 142.516 65.4922C141.766 65.0443 141.18 64.4062 140.758 63.5781C140.341 62.75 140.122 61.7995 140.102 60.7266V60.0859C140.102 58.9714 140.305 57.9896 140.711 57.1406C141.122 56.2865 141.708 55.6276 142.469 55.1641C143.234 54.7005 144.104 54.4688 145.078 54.4688C146.042 54.4688 146.901 54.6979 147.656 55.1562C148.411 55.6146 148.997 56.2682 149.414 57.1172C149.836 57.9609 150.049 58.9297 150.055 60.0234V60.5469ZM147.266 60.0703C147.266 58.9401 147.076 58.0833 146.695 57.5C146.32 56.9115 145.781 56.6172 145.078 56.6172C143.703 56.6172 142.977 57.6484 142.898 59.7109L142.891 60.5469C142.891 61.6615 143.076 62.5182 143.445 63.1172C143.815 63.7161 144.365 64.0156 145.094 64.0156C145.786 64.0156 146.32 63.7214 146.695 63.1328C147.07 62.5443 147.26 61.6979 147.266 60.5938V60.0703ZM157.336 62.9766C157.336 62.5755 157.193 62.263 156.906 62.0391C156.625 61.8151 156.128 61.5833 155.414 61.3438C154.701 61.1042 154.117 60.8724 153.664 60.6484C152.19 59.9245 151.453 58.9297 151.453 57.6641C151.453 57.0339 151.635 56.4792 152 56C152.37 55.5156 152.891 55.1406 153.562 54.875C154.234 54.6042 154.99 54.4688 155.828 54.4688C156.646 54.4688 157.378 54.6146 158.023 54.9062C158.674 55.1979 159.18 55.6146 159.539 56.1562C159.898 56.6927 160.078 57.3073 160.078 58H157.344C157.344 57.5365 157.201 57.1771 156.914 56.9219C156.633 56.6667 156.25 56.5391 155.766 56.5391C155.276 56.5391 154.888 56.6484 154.602 56.8672C154.32 57.0807 154.18 57.3542 154.18 57.6875C154.18 57.9792 154.336 58.2448 154.648 58.4844C154.961 58.7188 155.51 58.9635 156.297 59.2188C157.083 59.4688 157.729 59.7396 158.234 60.0312C159.464 60.7396 160.078 61.7161 160.078 62.9609C160.078 63.9557 159.703 64.737 158.953 65.3047C158.203 65.8724 157.174 66.1562 155.867 66.1562C154.945 66.1562 154.109 65.9922 153.359 65.6641C152.615 65.3307 152.052 64.8776 151.672 64.3047C151.297 63.7266 151.109 63.0625 151.109 62.3125H153.859C153.859 62.9219 154.016 63.3724 154.328 63.6641C154.646 63.9505 155.159 64.0938 155.867 64.0938C156.32 64.0938 156.677 63.9974 156.938 63.8047C157.203 63.6068 157.336 63.3307 157.336 62.9766Z" fill="#FB601D"/>
<line x1="163" y1="59" x2="187" y2="59" stroke="#FB601D" stroke-width="2"/>
<line x1="21" y1="59" x2="45" y2="59" stroke="#FB601D" stroke-width="2"/>
</svg>
